<svg width="1000" height="1000" viewBox="0 0 1000 1000" fill="none" xmlns="http://www.w3.org/2000/svg">
<g clip-path="url(#clip0_2338_4)">
<circle cx="500" cy="500" r="500" fill="url(#paint0_linear_2338_4)"/>
<path d="M196.533 217.46C188.014 202.705 203.254 185.628 218.88 192.421L536.32 330.422C541.457 332.656 547.348 332.321 552.199 329.52L782.539 196.533C797.294 188.014 814.371 203.255 807.579 218.88L669.578 536.32C667.344 541.457 667.679 547.348 670.48 552.199L803.467 782.539C811.986 797.294 796.745 814.371 781.12 807.578L463.68 669.578C458.543 667.344 452.652 667.679 447.801 670.48L217.461 803.467C202.706 811.986 185.629 796.745 192.421 781.12L330.422 463.68C332.656 458.543 332.321 452.652 329.52 447.801L196.533 217.46Z" fill="white"/>
</g>
<defs>
<linearGradient id="paint0_linear_2338_4" x1="500" y1="0" x2="500" y2="1000" gradientUnits="userSpaceOnUse">
<stop stop-color="#DC4200"/>
<stop offset="1" stop-color="#A3004F"/>
</linearGradient>
<clipPath id="clip0_2338_4">
<rect width="1000" height="1000" fill="white"/>
</clipPath>
</defs>
</svg>
